<?xml version="1.0" encoding="utf-8"?>
<!-- Generator: Adobe Illustrator 24.3.0, SVG Export Plug-In . SVG Version: 6.00 Build 0)  -->
<svg version="1.1" id="Layer_1" xmlns="http://www.w3.org/2000/svg" xmlns:xlink="http://www.w3.org/1999/xlink" x="0px" y="0px"
	 viewBox="0 0 60 60" style="enable-background:new 0 0 60 60;" xml:space="preserve">
<style type="text/css">
	.st0{fill:#00005B;}
	.st1{fill:#9999FF;}
</style>
<g id="vlpa_1_">
	<g id="vlpb_1_">
		<g id="vlpc_1_">
			<g id="vlpd_1_">
				<path class="st0" d="M11.3,1.7h37.5C54.4,1.7,59,6.3,59,12v36c0,5.7-4.6,10.3-10.3,10.3H11.3C5.6,58.3,1,53.7,1,48V12
					C1,6.3,5.6,1.7,11.3,1.7z"/>
			</g>
		</g>
	</g>
	<g id="vlpe_1_">
		<g id="vlpf_1_">
			<path class="st1" d="M24.3,35.6h-9l-1.8,5.7c0,0.2-0.2,0.4-0.5,0.3H8.5c-0.3,0-0.3-0.1-0.3-0.4L16,18.9c0.1-0.2,0.1-0.5,0.2-0.7
				c0.1-0.5,0.1-1,0.1-1.6c0-0.1,0.1-0.2,0.2-0.3h0.1h6.2c0.2,0,0.3,0.1,0.3,0.2L32,41.1c0.1,0.3,0,0.4-0.2,0.4h-5.1
				c-0.2,0-0.3-0.1-0.4-0.3l-2-5.8L24.3,35.6z M16.7,30.7h6.1c-0.1-0.5-0.3-1.1-0.6-1.7c-0.2-0.7-0.4-1.4-0.7-2.1
				c-0.2-0.7-0.5-1.5-0.7-2.2c-0.2-0.7-0.5-1.5-0.7-2.2c-0.2-0.7-0.4-1.3-0.5-1.9h0c-0.2,1-0.5,2.1-0.8,3.1
				c-0.4,1.2-0.7,2.4-1.1,3.6C17.5,28.6,17.1,29.7,16.7,30.7z"/>
			<path class="st1" d="M46.2,33.4h-7.7c0.1,0.7,0.3,1.5,0.7,2.2c0.4,0.7,1,1.2,1.8,1.5c1,0.4,2,0.6,3.1,0.6c0.8,0,1.7-0.1,2.5-0.3
				c0.7-0.1,1.5-0.3,2.2-0.6c0.1-0.1,0.2,0,0.2,0.2v3.7c0,0.1,0,0.2,0,0.3c0,0.1-0.1,0.1-0.2,0.2c-0.8,0.3-1.6,0.6-2.4,0.7
				c-1.1,0.2-2.3,0.3-3.4,0.3c-1.8,0-3.4-0.3-4.6-0.8c-1.2-0.5-2.2-1.3-3-2.3c-0.8-0.9-1.3-2-1.7-3.2c-0.3-1.1-0.5-2.3-0.5-3.5
				c0-1.3,0.2-2.6,0.6-3.8c0.4-1.2,1-2.3,1.8-3.3c0.8-1,1.8-1.7,2.9-2.3c1.1-0.6,2.5-0.7,4-0.7c1.3,0,2.6,0.2,3.7,0.7
				c1,0.4,1.9,1.1,2.5,1.9c0.6,0.8,1.1,1.7,1.4,2.8c0.3,1,0.5,2,0.5,2.9c0,0.6,0,1.1,0,1.5c0,0.5-0.1,0.8-0.1,1
				c0,0.2-0.2,0.3-0.3,0.3c-0.1,0-0.4,0-0.8,0c-0.4,0-0.8,0.1-1.4,0.1C47.4,33.5,46.8,33.4,46.2,33.4L46.2,33.4z M38.5,29.9h5.1
				c0.6,0,1.1,0,1.4,0c0.2,0,0.4-0.1,0.6-0.2v-0.2c0-0.3,0-0.6-0.1-0.9c-0.4-1.4-1.7-2.3-3.1-2.2c-1.3-0.1-2.6,0.6-3.2,1.8
				C38.8,28.7,38.6,29.3,38.5,29.9z"/>
		</g>
	</g>
</g>
</svg>
