<?xml version="1.0" encoding="utf-8"?>
<!-- Generator: Adobe Illustrator 24.3.0, SVG Export Plug-In . SVG Version: 6.00 Build 0)  -->
<svg version="1.1" id="Layer_1" xmlns="http://www.w3.org/2000/svg" xmlns:xlink="http://www.w3.org/1999/xlink" x="0px" y="0px"
	 viewBox="0 0 60 60" style="enable-background:new 0 0 60 60;" xml:space="preserve">
<style type="text/css">
	.st0{fill:#264DE4;}
	.st1{fill:#2965F1;}
	.st2{fill:#EBEBEB;}
	.st3{fill:#FFFFFF;}
</style>
<g id="layer1" transform="translate(-193.633,-276.3622)">
	<g id="g3013" transform="translate(119,276.3622)">
		<polygon id="polygon2989" class="st0" points="130.2,1 125.5,53.2 104.6,59 83.7,53.2 79.1,1 		"/>
		<polygon id="polygon2991" class="st1" points="121.6,49.9 125.5,5.3 104.6,5.3 104.6,54.6 		"/>
		<polygon id="polygon2993" class="st2" points="89.7,24.6 90.3,31 104.6,31 104.6,24.6 		"/>
		<polygon id="polygon2995" class="st2" points="104.6,11.7 104.6,11.7 88.6,11.7 89.2,18.1 104.6,18.1 		"/>
		<polygon id="polygon2997" class="st2" points="104.6,47.9 104.6,41.3 104.6,41.3 97.5,39.3 97,34.2 93.6,34.2 90.6,34.2 
			91.5,44.3 104.6,47.9 		"/>
		<polygon id="polygon3005" class="st3" points="112.5,31 111.8,39.3 104.6,41.3 104.6,47.9 117.7,44.3 117.8,43.2 119.3,26.3 
			119.5,24.6 120.6,11.7 104.6,11.7 104.6,18.1 113.6,18.1 113,24.6 104.6,24.6 104.6,31 		"/>
	</g>
</g>
</svg>
