<?xml version="1.0" encoding="utf-8"?>
<!-- Generator: Adobe Illustrator 24.3.0, SVG Export Plug-In . SVG Version: 6.00 Build 0)  -->
<svg version="1.1" id="Layer_1" xmlns="http://www.w3.org/2000/svg" xmlns:xlink="http://www.w3.org/1999/xlink" x="0px" y="0px"
	 viewBox="0 0 60 60" style="enable-background:new 0 0 60 60;" xml:space="preserve">
<style type="text/css">
	.st0{clip-path:url(#SVGID_2_);}
	.st1{fill:#1ABCFE;}
	.st2{fill:#0ACF83;}
	.st3{fill:#FF7262;}
	.st4{fill:#F24E1E;}
	.st5{fill:#A259FF;}
</style>
<g>
	<defs>
		<rect id="SVGID_1_" x="10.7" y="1" width="38.7" height="58"/>
	</defs>
	<clipPath id="SVGID_2_">
		<use xlink:href="#SVGID_1_"  style="overflow:visible;"/>
	</clipPath>
	<g class="st0">
		<path class="st1" d="M30,30c0-2.6,1-5,2.8-6.8c1.8-1.8,4.3-2.8,6.8-2.8c2.6,0,5,1,6.8,2.8c1.8,1.8,2.8,4.3,2.8,6.8s-1,5-2.8,6.8
			c-1.8,1.8-4.3,2.8-6.8,2.8c-2.6,0-5-1-6.8-2.8C31,35,30,32.6,30,30z"/>
		<path class="st2" d="M10.7,49.3c0-2.6,1-5,2.8-6.8c1.8-1.8,4.3-2.8,6.8-2.8H30v9.7c0,2.6-1,5-2.8,6.8C25.4,58,22.9,59,20.3,59
			c-2.6,0-5-1-6.8-2.8C11.7,54.4,10.7,51.9,10.7,49.3L10.7,49.3z"/>
		<path class="st3" d="M30,1v19.3h9.7c2.6,0,5-1,6.8-2.8c1.8-1.8,2.8-4.3,2.8-6.8c0-2.6-1-5-2.8-6.8C44.7,2,42.2,1,39.7,1H30z"/>
		<path class="st4" d="M10.7,10.7c0,2.6,1,5,2.8,6.8c1.8,1.8,4.3,2.8,6.8,2.8H30V1h-9.7c-2.6,0-5,1-6.8,2.8
			C11.7,5.6,10.7,8.1,10.7,10.7L10.7,10.7z"/>
		<path class="st5" d="M10.7,30c0,2.6,1,5,2.8,6.8c1.8,1.8,4.3,2.8,6.8,2.8H30V20.3h-9.7c-2.6,0-5,1-6.8,2.8
			C11.7,25,10.7,27.4,10.7,30L10.7,30z"/>
	</g>
</g>
</svg>
