<?xml version="1.0" encoding="utf-8"?>
<!-- Generator: Adobe Illustrator 24.3.0, SVG Export Plug-In . SVG Version: 6.00 Build 0)  -->
<svg version="1.1" id="Layer_1" xmlns="http://www.w3.org/2000/svg" xmlns:xlink="http://www.w3.org/1999/xlink" x="0px" y="0px"
	 viewBox="0 0 60 60" style="enable-background:new 0 0 60 60;" xml:space="preserve">
<style type="text/css">
	.st0{fill:#191919;}
</style>
<g transform="translate(0.000000,240.000000) scale(0.100000,-0.100000)">
	<path class="st0" d="M241.9,2378c-77-17.2-140.2-59.9-183.7-124.5c-76-113.9-60.9-266.8,36.1-364.3c29.1-29.3,73.3-57.6,106.6-68.5
		c12.4-4,13.9-4,19.5-0.3c6.1,4,6.3,5.1,6.3,34.1v29.8l-22.2-1.3c-26-1.3-46.2,3.3-58.4,13.6c-4.3,3.5-12.6,15.7-18.4,26.8
		c-9.6,18.7-16.7,27.3-36.4,44.7c-6.6,5.8-6.8,6.1-2.3,9.3c10.9,8.1,32.8,0.3,46.7-16.4c24.3-29.6,33.6-37.4,47.5-40.4
		c12.4-2.5,23.7-1.5,40.9,3.5c2.3,0.8,5.3,6.1,6.8,12.1c1.5,5.8,5.6,14.7,8.8,19.5l6.1,8.8l-20.5,4c-42.9,8.8-69.5,24.3-86.9,50.5
		c-16.2,24.3-21.5,45.2-21.7,84.4c0,36.9,4,52,20,72.8c7.1,9.1,7.8,11.9,5.8,17.2c-3.8,9.1-2.8,47.5,1.3,59.1
		c3.3,8.6,5.1,10.1,11.9,10.9c11.4,1.3,32.6-6.1,54.1-18.2l18.4-10.6l16.2,3.8c23,5.3,92,5.1,112.7,0l15.7-4l14.7,8.8
		c19.5,11.6,44.2,20.7,56.6,20.7c9.9,0,9.9-0.3,13.9-13.1c4.3-14.9,5.1-41.9,1.3-54.8c-2-7.6-1.5-9.9,4-17.2
		c27.5-36.4,30.6-96.8,7.3-146.3c-15.7-32.6-48.8-55.3-93.2-63.7l-21.2-4l7.8-13.9l8.1-14.1l0.8-56.3l1-56.3l6.3-4
		c5.8-3.8,7.1-3.8,19.2,0.5c20.2,6.8,54.8,25.5,73.8,39.9c112.7,84.4,149,235.7,86.6,361.5c-36.6,74-105.8,130.9-185.2,152.1
		C339.9,2383.4,274.7,2385.4,241.9,2378z"/>
</g>
</svg>
