<?xml version="1.0" encoding="utf-8"?>
<!-- Generator: Adobe Illustrator 24.3.0, SVG Export Plug-In . SVG Version: 6.00 Build 0)  -->
<svg version="1.1" id="Layer_1" xmlns="http://www.w3.org/2000/svg" xmlns:xlink="http://www.w3.org/1999/xlink" x="0px" y="0px"
	 viewBox="0 0 60 60" style="enable-background:new 0 0 60 60;" xml:space="preserve">
<style type="text/css">
	.st0{fill:#330000;}
	.st1{fill:#FF9A00;}
</style>
<g>
	<path class="st0" d="M11.3,1.7h37.5C54.4,1.7,59,6.3,59,12v36c0,5.7-4.6,10.3-10.3,10.3H11.3C5.6,58.3,1,53.7,1,48V12
		C1,6.3,5.6,1.7,11.3,1.7z"/>
	<path class="st1" d="M29,35.6h-9l-1.8,5.7c0,0.2-0.2,0.4-0.5,0.3h-4.5c-0.3,0-0.3-0.1-0.3-0.4l7.8-22.4c0.1-0.2,0.1-0.5,0.2-0.8
		c0.1-0.5,0.1-1,0.1-1.6c0-0.1,0.1-0.2,0.2-0.3h6.3c0.2,0,0.3,0.1,0.3,0.2l8.8,24.9c0.1,0.3,0,0.4-0.2,0.4h-5.1
		c-0.2,0-0.3-0.1-0.4-0.3L29,35.6z M21.4,30.7h6.1c-0.1-0.5-0.3-1.1-0.6-1.7c-0.2-0.7-0.4-1.4-0.7-2.1c-0.2-0.7-0.5-1.5-0.7-2.2
		s-0.5-1.4-0.7-2.2c-0.2-0.7-0.4-1.3-0.5-1.9h0c-0.2,1-0.5,2.1-0.8,3.1c-0.4,1.2-0.7,2.4-1.1,3.6C22.2,28.5,21.8,29.6,21.4,30.7z
		 M42.1,20.3c-0.8,0-1.6-0.3-2.2-0.8c-0.6-0.6-0.8-1.4-0.8-2.2c0-0.8,0.3-1.6,0.9-2.2s1.4-0.8,2.2-0.8c0.9,0,1.7,0.3,2.2,0.8
		c0.5,0.6,0.8,1.4,0.8,2.2c0,0.8-0.3,1.6-0.8,2.2C43.7,20.1,42.9,20.4,42.1,20.3L42.1,20.3z M39.4,41.3V22.7c0-0.2,0.1-0.3,0.3-0.3
		h4.8c0.2,0,0.3,0.1,0.3,0.3v18.6c0,0.3-0.1,0.4-0.3,0.4h-4.7C39.5,41.7,39.4,41.6,39.4,41.3z"/>
</g>
</svg>
