<?xml version="1.0" encoding="utf-8"?>
<!-- Generator: Adobe Illustrator 24.3.0, SVG Export Plug-In . SVG Version: 6.00 Build 0)  -->
<svg version="1.1" id="Layer_1" xmlns="http://www.w3.org/2000/svg" xmlns:xlink="http://www.w3.org/1999/xlink" x="0px" y="0px"
	 viewBox="0 0 60 60" style="enable-background:new 0 0 60 60;" xml:space="preserve">
<style type="text/css">
	.st0{fill:#185C37;}
	.st1{fill:#21A366;}
	.st2{fill:#107C41;}
	.st3{opacity:0.1;enable-background:new    ;}
	.st4{opacity:0.2;enable-background:new    ;}
	.st5{fill:url(#SVGID_1_);}
	.st6{fill:#FFFFFF;}
	.st7{fill:#33C481;}
</style>
<g>
	<path class="st0" d="M37.4,28.7l-22.9-4v29.9c0,1.4,1.1,2.5,2.5,2.5l0,0h39.6c1.4,0,2.5-1.1,2.5-2.5l0,0v-11L37.4,28.7z"/>
	<path class="st1" d="M37.4,3H17c-1.4,0-2.5,1.1-2.5,2.5l0,0v11L37.4,30l12.1,4l9.4-4V16.5L37.4,3z"/>
	<path class="st2" d="M14.5,16.5h22.9V30H14.5V16.5z"/>
	<path class="st3" d="M30.9,13.8H14.5v33.7h16.4c1.4,0,2.5-1.1,2.5-2.5V16.3C33.4,14.9,32.3,13.8,30.9,13.8z"/>
	<path class="st4" d="M29.6,15.2H14.5v33.7h15.1c1.4,0,2.5-1.1,2.5-2.5V17.6C32,16.3,30.9,15.2,29.6,15.2z"/>
	<path class="st4" d="M29.6,15.2H14.5v31h15.1c1.4,0,2.5-1.1,2.5-2.5V17.6C32,16.3,30.9,15.2,29.6,15.2z"/>
	<path class="st4" d="M28.2,15.2H14.5v31h13.7c1.4,0,2.5-1.1,2.5-2.5V17.6C30.7,16.3,29.6,15.2,28.2,15.2z"/>
	
		<linearGradient id="SVGID_1_" gradientUnits="userSpaceOnUse" x1="6.155" y1="-1276.8793" x2="25.5194" y2="-1243.3411" gradientTransform="matrix(1 0 0 1 0 1290.1101)">
		<stop  offset="0" style="stop-color:#18884F"/>
		<stop  offset="0.5" style="stop-color:#117E43"/>
		<stop  offset="1" style="stop-color:#0B6631"/>
	</linearGradient>
	<path class="st5" d="M3.5,15.2h24.7c1.4,0,2.5,1.1,2.5,2.5v24.7c0,1.4-1.1,2.5-2.5,2.5H3.5c-1.4,0-2.5-1.1-2.5-2.5V17.6
		C1,16.3,2.1,15.2,3.5,15.2z"/>
	<path class="st6" d="M8.7,38l5.2-8.1l-4.8-8h3.8l2.6,5.1c0.2,0.5,0.4,0.8,0.5,1.1h0c0.2-0.4,0.4-0.8,0.5-1.1l2.8-5.1h3.5l-4.9,8
		l5,8.1h-3.7l-3-5.6c-0.1-0.2-0.3-0.5-0.4-0.8h0c-0.1,0.3-0.2,0.5-0.3,0.7L12.4,38L8.7,38L8.7,38z"/>
	<path class="st7" d="M56.5,3H37.4v13.5H59v-11C59,4.1,57.9,3,56.5,3L56.5,3z"/>
	<path class="st2" d="M37.4,30H59v13.5H37.4V30z"/>
</g>
</svg>
