<?xml version="1.0" encoding="utf-8"?>
<!-- Generator: Adobe Illustrator 24.3.0, SVG Export Plug-In . SVG Version: 6.00 Build 0)  -->
<svg version="1.1" id="Layer_1" xmlns="http://www.w3.org/2000/svg" xmlns:xlink="http://www.w3.org/1999/xlink" x="0px" y="0px"
	 viewBox="0 0 60 60" style="enable-background:new 0 0 60 60;" xml:space="preserve">
<style type="text/css">
	.st0{fill:#41A5EE;}
	.st1{fill:#2B7CD3;}
	.st2{fill:#185ABD;}
	.st3{fill:#103F91;}
	.st4{opacity:0.1;enable-background:new    ;}
	.st5{opacity:0.2;enable-background:new    ;}
	.st6{fill:url(#SVGID_1_);}
	.st7{fill:#FFFFFF;}
</style>
<g>
	<path class="st0" d="M56.5,3H17c-1.4,0-2.5,1.1-2.5,2.5l0,0v11l22.9,6.7L59,16.5v-11C59,4.1,57.9,3,56.5,3L56.5,3z"/>
	<path class="st1" d="M59,16.5H14.5V30l22.9,4L59,30V16.5z"/>
	<path class="st2" d="M14.5,30v13.5l21.6,2.7L59,43.5V30H14.5z"/>
	<path class="st3" d="M17,57h39.6c1.4,0,2.5-1.1,2.5-2.5l0,0v-11H14.5v11C14.5,55.9,15.6,57,17,57L17,57z"/>
	<path class="st4" d="M30.9,13.8H14.5v33.7h16.4c1.4,0,2.5-1.1,2.5-2.5V16.3C33.4,14.9,32.3,13.8,30.9,13.8z"/>
	<path class="st5" d="M29.6,15.2H14.5v33.7h15.1c1.4,0,2.5-1.1,2.5-2.5V17.6C32,16.3,30.9,15.2,29.6,15.2z"/>
	<path class="st5" d="M29.6,15.2H14.5v31h15.1c1.4,0,2.5-1.1,2.5-2.5V17.6C32,16.3,30.9,15.2,29.6,15.2z"/>
	<path class="st5" d="M28.2,15.2H14.5v31h13.7c1.4,0,2.5-1.1,2.5-2.5V17.6C30.7,16.3,29.6,15.2,28.2,15.2z"/>
	
		<linearGradient id="SVGID_1_" gradientUnits="userSpaceOnUse" x1="6.155" y1="-896.8793" x2="25.5194" y2="-863.3411" gradientTransform="matrix(1 0 0 1 0 910.1102)">
		<stop  offset="0" style="stop-color:#2368C4"/>
		<stop  offset="0.5" style="stop-color:#1A5DBE"/>
		<stop  offset="1" style="stop-color:#1146AC"/>
	</linearGradient>
	<path class="st6" d="M3.5,15.2h24.7c1.4,0,2.5,1.1,2.5,2.5v24.7c0,1.4-1.1,2.5-2.5,2.5H3.5c-1.4,0-2.5-1.1-2.5-2.5V17.6
		C1,16.3,2.1,15.2,3.5,15.2z"/>
	<path class="st7" d="M11.1,34.1c0,0.4,0.1,0.7,0.1,1h0.1c0-0.3,0.1-0.6,0.1-1c0.1-0.4,0.1-0.7,0.2-1L14.2,22h3.4L20.3,33
		c0.2,0.7,0.3,1.4,0.3,2.1h0c0.1-0.7,0.1-1.4,0.3-2L23.1,22h3.1L22.4,38h-3.6l-2.6-10.6c-0.1-0.3-0.2-0.7-0.3-1.2
		c-0.1-0.5-0.2-0.9-0.2-1.1h0c0,0.3-0.1,0.7-0.2,1.2c-0.1,0.5-0.2,0.9-0.2,1.1L13,38H9.3L5.5,22h3.1L11,33.2
		C11,33.4,11.1,33.7,11.1,34.1z"/>
</g>
</svg>
