<?xml version="1.0" encoding="utf-8"?>
<!-- Generator: Adobe Illustrator 24.3.0, SVG Export Plug-In . SVG Version: 6.00 Build 0)  -->
<svg version="1.1" id="Layer_1" xmlns="http://www.w3.org/2000/svg" xmlns:xlink="http://www.w3.org/1999/xlink" x="0px" y="0px"
	 viewBox="0 0 60 60" style="enable-background:new 0 0 60 60;" xml:space="preserve">
<style type="text/css">
	.st0{fill:#191919;}
</style>
<path class="st0" d="M41.1,47.5l4.6,7l0.2-0.2c2.1-1.3,4.2-3.2,6-5.2c3.7-4.2,6-9.3,6.8-14.8C59,32.6,59,32.2,59,30s0-2.6-0.3-4.2
	c-1.6-10.9-9.3-20-19.8-23.4c-1.9-0.6-3.8-1-6-1.3C32.3,1,28.6,1,28.1,1v0c-0.1,0-0.5,0.1-0.9,0.1c-8.2,0.7-16,5.2-20.8,12
	c-2.7,3.8-4.5,8.1-5.1,12.7C1,27.4,1,27.8,1,30s0,2.6,0.3,4.2c1.6,10.9,9.3,20,19.8,23.4c1.9,0.6,3.9,1,6.1,1.3
	c0.9,0.1,4.7,0.1,5.6,0c3.9-0.4,7.2-1.4,10.4-3.1c0.5-0.3,0.6-0.3,0.5-0.4c0,0-2.2-2.9-4.7-6.3l-4.6-6.3l-5.8-8.6
	c-3.2-4.7-5.8-8.6-5.9-8.6c0,0,0,3.8-0.1,8.5c0,8.2,0,8.5-0.1,8.7c-0.1,0.3-0.3,0.4-0.5,0.5c-0.2,0.1-0.3,0.1-1.2,0.1h-1l-0.3-0.2
	c-0.2-0.1-0.3-0.2-0.4-0.4l-0.1-0.3l0-11.4l0-11.4l0.2-0.2c0.1-0.1,0.3-0.3,0.4-0.3c0.2-0.1,0.3-0.1,1.3-0.1c1.2,0,1.3,0,1.6,0.4
	L41.1,47.5z M40,18.6c0.3,0.1,0.5,0.4,0.6,0.7c0,0.1,0.1,3.3,0,10.4l0,10.2l-1.8-2.8L37,34.3v-7.4c0-4.8,0-7.5,0.1-7.6
	c0.1-0.3,0.3-0.6,0.6-0.7c0.2-0.1,0.3-0.1,1.2-0.1C39.6,18.4,39.8,18.5,40,18.6L40,18.6z"/>
</svg>
