<?xml version="1.0" encoding="utf-8"?>
<!-- Generator: Adobe Illustrator 24.3.0, SVG Export Plug-In . SVG Version: 6.00 Build 0)  -->
<svg version="1.1" id="Layer_1" xmlns="http://www.w3.org/2000/svg" xmlns:xlink="http://www.w3.org/1999/xlink" x="0px" y="0px"
	 viewBox="0 0 60 60" style="enable-background:new 0 0 60 60;" xml:space="preserve">
<style type="text/css">
	.st0{fill:#001E36;}
	.st1{fill:#31A8FF;}
</style>
<g id="Layer_2_1_">
	<g id="Surfaces">
		<g id="Photo_Surface">
			<g id="Outline_no_shadow">
				<path class="st0" d="M11.3,1.7h37.5C54.4,1.7,59,6.3,59,12v36c0,5.7-4.6,10.3-10.3,10.3H11.3C5.6,58.3,1,53.7,1,48V12
					C1,6.3,5.6,1.7,11.3,1.7z"/>
			</g>
		</g>
	</g>
	<g id="Outlined_Mnemonics_Logos">
		<g id="Ps">
			<path class="st1" d="M14.1,41.4V16.5c0-0.2,0.1-0.3,0.2-0.3c0.4,0,0.8,0,1.4,0c0.6,0,1.2,0,1.8,0c0.7,0,1.4,0,2.1,0s1.5,0,2.2,0
				c2,0,3.6,0.2,5,0.7c1.2,0.4,2.3,1.1,3.2,2c0.8,0.8,1.4,1.7,1.8,2.8c0.4,1,0.6,2.1,0.6,3.1c0,2.1-0.5,3.8-1.5,5.1
				c-1,1.4-2.3,2.4-3.9,2.9c-1.6,0.6-3.5,0.8-5.4,0.8c-0.6,0-1,0-1.2,0c-0.2,0-0.6,0-1,0v7.8c0,0.2-0.1,0.3-0.3,0.3c0,0,0,0-0.1,0
				h-4.6C14.1,41.7,14.1,41.6,14.1,41.4z M19.3,20.9V29c0.3,0,0.7,0,0.9,0h1.3c0.9,0,1.9-0.1,2.8-0.4c0.8-0.2,1.5-0.7,2-1.3
				c0.5-0.6,0.7-1.4,0.7-2.5c0-0.7-0.2-1.5-0.6-2.2c-0.4-0.6-1-1.1-1.7-1.4c-0.9-0.4-1.9-0.5-2.9-0.5c-0.6,0-1.2,0-1.6,0
				C19.8,20.9,19.5,20.9,19.3,20.9L19.3,20.9z"/>
			<path class="st1" d="M47.4,27.6c-0.7-0.4-1.5-0.7-2.3-0.8c-0.9-0.2-1.8-0.3-2.7-0.3c-0.5,0-1,0-1.5,0.2c-0.3,0.1-0.6,0.2-0.7,0.5
				c-0.1,0.2-0.2,0.4-0.2,0.7c0,0.2,0.1,0.4,0.2,0.6c0.2,0.3,0.5,0.5,0.8,0.7c0.6,0.3,1.1,0.6,1.7,0.8c1.3,0.4,2.6,1,3.7,1.8
				c0.8,0.5,1.5,1.2,1.9,2c0.4,0.8,0.6,1.6,0.6,2.5c0,1.1-0.3,2.3-0.9,3.2c-0.7,1-1.6,1.7-2.7,2.2c-1.2,0.5-2.6,0.8-4.4,0.8
				c-1.1,0-2.2-0.1-3.3-0.3c-0.8-0.1-1.7-0.4-2.5-0.8c-0.2-0.1-0.3-0.3-0.3-0.5v-4.2c0-0.1,0-0.2,0.1-0.2c0.1,0,0.1,0,0.2,0
				c0.9,0.6,1.9,0.9,3,1.2c0.9,0.2,1.9,0.4,2.9,0.4c0.9,0,1.6-0.1,2-0.3c0.4-0.2,0.7-0.6,0.7-1c0-0.3-0.2-0.7-0.6-1
				s-1.2-0.7-2.4-1.1c-1.2-0.4-2.4-1-3.4-1.7c-0.7-0.5-1.4-1.2-1.8-2.1c-0.4-0.8-0.6-1.6-0.6-2.5c0-1,0.3-2,0.8-2.9
				c0.6-1,1.5-1.7,2.5-2.2c1.1-0.6,2.6-0.8,4.3-0.8c1,0,2,0.1,3,0.2c0.7,0.1,1.4,0.3,2.1,0.6c0.1,0,0.2,0.1,0.2,0.2
				c0,0.1,0,0.2,0,0.3v3.9c0,0.1,0,0.2-0.1,0.2C47.6,27.6,47.5,27.6,47.4,27.6z"/>
		</g>
	</g>
</g>
</svg>
