<?xml version="1.0" encoding="utf-8"?>
<!-- Generator: Adobe Illustrator 24.3.0, SVG Export Plug-In . SVG Version: 6.00 Build 0)  -->
<svg version="1.1" id="Layer_1" xmlns="http://www.w3.org/2000/svg" xmlns:xlink="http://www.w3.org/1999/xlink" x="0px" y="0px"
	 viewBox="0 0 60 60" style="enable-background:new 0 0 60 60;" xml:space="preserve">
<style type="text/css">
	.st0{fill:#38BDF8;}
</style>
<path class="st0" d="M30,12.6c-7.7,0-12.6,3.9-14.5,11.6c2.9-3.9,6.3-5.3,10.2-4.4c2.2,0.6,3.8,2.2,5.5,3.9C34,26.7,37.3,30,44.5,30
	c7.7,0,12.6-3.9,14.5-11.6c-2.9,3.9-6.3,5.3-10.2,4.4c-2.2-0.6-3.8-2.2-5.5-3.9C40.5,15.9,37.2,12.6,30,12.6z M15.5,30
	C7.8,30,2.9,33.9,1,41.6c2.9-3.9,6.3-5.3,10.1-4.4c2.2,0.6,3.8,2.2,5.5,3.9c2.8,2.9,6.1,6.2,13.3,6.2c7.7,0,12.6-3.9,14.5-11.6
	c-2.9,3.9-6.3,5.3-10.2,4.4c-2.2-0.6-3.8-2.2-5.5-3.9C26,33.3,22.7,30,15.5,30z"/>
</svg>
