<?xml version="1.0" encoding="utf-8"?>
<!-- Generator: Adobe Illustrator 24.3.0, SVG Export Plug-In . SVG Version: 6.00 Build 0)  -->
<svg version="1.1" id="Layer_1" xmlns="http://www.w3.org/2000/svg" xmlns:xlink="http://www.w3.org/1999/xlink" x="0px" y="0px"
	 viewBox="0 0 300 300" style="enable-background:new 0 0 300 300;" xml:space="preserve">
<style type="text/css">
	.st0{fill:#FFFFFF;}
</style>
<g>
	<path class="st0" d="M256.6,200.1c0,3.6,0,7.3,0,10.9l0.1-0.1c-3.9,0-7.7,0-11.5,0c0,4.4,0,7.9,0,12c4.1,0,7.8,0,11.5,0l-0.1-0.1
		c0,3.6,0.1,7.3,0.1,10.9c-3.9,0-7.7,0-11.6,0c0,3.9,0,7,0,10.3c3.9,0,7.5,0,11.5,0c0-3.7,0-7.1,0-10.4c11,0,21.9,0,33.3,0
		c0,18.8,0,37.1,0,55.9c-26,0-52,0-78.7,0c0-3.9,0-7.8,0-11.6l-0.1,0.1c3.9,0,7.7,0,12,0c0-4.1,0-7.2,0-11c7.3,0,14.2,0,21.2,0
		c0-3.7,0-6.9,0-10.6c-3.5,0-6.9,0-10.7,0c0-4.2,0-7.9,0-11.5c-3.8,0-6.9,0-10.7,0c0,4,0,7.6,0,11.4c-8,0-15.3,0-22.7,0l0.1,0.1
		c0-3.8,0-7.7,0-12.1c-8.1,0-15.4,0-22.7,0c0-3.9,0-7.3,0-10.7l-0.1,0.1c3.9,0,7.7,0,11.5,0c0-8,0-15.1,0-22.7
		c-11.3,0-22.2,0-33.2,0l0.1,0.1c0-3.4,0-6.8,0-10.5c-4.1,0-7.6,0-11.6,0c0-7.7,0-14.9,0-22.6c3.5,0,7.2,0,11.5,0
		c0,3.5,0,7.2,0,11.2c3.8,0,7,0,10.7,0c0,3.7,0,7,0,10.6c7.7,0,14.9,0,22.9,0c0-7.4,0-14.8,0-22.3l-0.1,0.1c3.7,0,7.3-0.1,11-0.1
		c0,3.9,0,7.7,0,11.5c7.9,0,15,0,22.2,0c0-11.1,0-21.9,0-33.1c-3.9,0-7.4,0-11.6,0c0-4,0-7.7,0-11.9c-3.9,0-7.2,0-10.6,0
		c0-4,0-7.4,0-10.7l-0.1,0.1c3.4,0,6.8,0,10.6,0c0-3.7,0-6.9,0-10.6c4.1,0,7.7,0,11.8,0c0-4.1,0-7.6,0-11.7c-3.5,0-7.2,0-11.2,0
		c0-3.9,0-7.2,0-10.9c18.5,0,36.9,0,56,0c0,3.5,0,7.1,0,10.6l0.1-0.1c-11.1,0-22.2,0-33.2,0c0,4.5,0,8,0,12.1c7.6,0,14.9,0,22.1,0
		c0,3.8,0,7,0,10.8c-7.5,0-14.8,0-22.2,0c0,3.8,0,6.9,0,10.7c3.6,0,6.9,0,10.5,0c0,4.4,0,8.1,0,11.9c-3.5,0-7,0-10.6,0
		c0,3.9,0,7,0,10.3c3.5,0,6.8,0,10.4,0c0-3.7,0-7.1,0-10.4c4,0.1,8,0.1,12,0.2c0,0-0.1-0.1-0.1-0.1c0,7,0,13.9,0,21.5
		c-3.8,0-7.5,0-11.4,0c0,7.7,0,14.8,0,22.8C249,200.2,252.9,200.2,256.6,200.1L256.6,200.1z M200.8,200.5c0,11.2,0,21.9,0,32.6
		c11.1,0,22,0,32.8,0c0-11.1,0-21.7,0-32.6C222.6,200.5,211.9,200.5,200.8,200.5z M267.5,256.5c0,3.7,0,7,0,10.8
		c-3.9,0-7.2,0-10.4,0c0,3.7,0,6.9,0,10c7.2,0,14.1,0,20.8,0c0-7.2,0-13.9,0-20.8C274.5,256.5,271.5,256.5,267.5,256.5z"/>
	<path class="st0" d="M10,88.8c0-26.2,0-52,0-78.2c26.2,0,52.2,0,78.6,0c0,25.9,0,51.9,0,78.2C62.6,88.8,36.6,88.8,10,88.8z
		 M76.8,22.7c-18.6,0-36.6,0-54.6,0c0,18.3,0,36.1,0,54c18.4,0,36.4,0,54.6,0C76.8,58.5,76.8,40.8,76.8,22.7z"/>
	<path class="st0" d="M211.4,88.7c0-26,0-51.8,0-78.1c26,0,52.1,0,78.5,0c0,25.8,0,51.7,0,78.1C264,88.7,238,88.7,211.4,88.7z
		 M223.3,76.7c18.6,0,36.6,0,54.6,0c0-18.3,0-36.1,0-54c-18.4,0-36.4,0-54.6,0C223.3,40.8,223.3,58.5,223.3,76.7z"/>
	<path class="st0" d="M10.1,289.3c0-26,0-51.8,0-78.1c26,0,52.1,0,78.5,0c0,25.8,0,51.7,0,78.1C62.7,289.3,36.7,289.3,10.1,289.3z
		 M22.2,223.1c0,18.5,0,36.3,0,54.2c18.4,0,36.4,0,54.3,0c0-18.3,0-36.1,0-54.2C58.3,223.1,40.4,223.1,22.2,223.1z"/>
	<path class="st0" d="M43.3,177.5c0-3.6,0.1-7.3,0.1-10.9c0,0-0.1,0.1-0.1,0.1c18.5,0,37.1,0,56.3,0c0,3.5,0,6.8,0,10.5
		c3.8,0,7,0,10.8,0c0,4.1,0,7.7,0,12c7.9,0,15.2,0,22.7,0c0,3.8,0,7,0,10.8c-7.2,0-14.5,0-22.4,0c0,3.9,0,7.2,0,10.8
		c-3.8,0-7,0-10.8,0c0-3.2,0-6.5,0-10.4c-7.9,0-15.2,0-22.7,0c0-3.9,0-7.2,0-11c3.8,0,7.3,0,11.2,0c0-3.9,0-7.4,0-11.4
		c-7.1,0-14.3,0-22,0c0,7.2,0,14.3,0,21.8c-11.3,0-22.2,0-33.5,0c0-7.2,0-14.4,0-22.4c3.5,0,7,0,10.6,0c0,3.9,0,7.7,0,11.6
		c4.3,0,7.8,0,11.4,0c0-3.9,0-7.5,0-11.5C50.8,177.5,47.1,177.5,43.3,177.5z"/>
	<path class="st0" d="M21.9,156c0-4,0-8,0-12l-0.1,0.1c7,0,14,0,21.3,0c0-11.3,0-21.9,0-33.3c-3.3,0-6.6,0-10.2,0
		c0-3.9,0-7.2,0-10.8c18.7,0,37.1,0,55.9,0c0,3.4,0,6.6,0,10.4c-7.2,0-14.5,0-22.1,0c0,7.7,0,14.8,0,22.9c3.4,0,6.9,0,10.4,0
		l-0.1-0.1c0,3.6,0,7.3,0,10.9l0.1-0.1c-7,0-14,0-21.5,0c0,4.2,0,7.8,0,11.9c-4.1,0-7.7,0-12.1,0c0,3.9,0,7.4,0,10.9
		c0,0,0.1-0.1,0.1-0.1c-3.4,0-6.7,0-10.7,0c0-3.4,0-6.7,0-10.8C28.7,155.9,25.2,155.9,21.9,156L21.9,156z"/>
	<path class="st0" d="M211.3,277.8c-11.2,0-22.4,0-33.6,0l0.1,0.1c0-3.5,0-7,0-10.4c-4.1,0-7.2,0-10.9,0c0,3.7,0,7.1,0,10.4l0.1-0.1
		c-3.4,0-6.8,0-10.6,0c0,4,0,7.6,0,11.5c-4.1,0-7.7,0-11.9,0c0-7,0-14.3,0-22.1c3.4,0,7.1,0,11.1,0c0-3.7,0-6.9,0-10.7
		c-3.5,0-7.2,0-11.4,0c0-4.5,0-8.3,0-12.2l-0.1,0.1c7.5,0,14.9,0,23,0c0,4.1,0,7.8,0,11.9c11.5,0,22.4,0,33.4,0l-0.1-0.1
		c0,3.5,0,7,0,11c4.2,0,7.4,0,10.8,0C211.2,271.1,211.2,274.5,211.3,277.8L211.3,277.8z"/>
	<path class="st0" d="M267.4,110.7c3.4,0,6.8,0,10.8,0c0,3.8,0,7.5,0,11.6c4.1,0,7.7,0,11.6,0c0,11.3,0,22.1,0,33.6
		c-3.5,0-7.2,0-11.2,0c0,3.8,0,6.9,0,10.7c3.6,0,7.3,0,11.3,0c0,7.9,0,15.1,0,22.7c-3.8,0-7.3,0-11.5,0c0-3.5,0-7.2,0-11.5
		c-3.9,0-7.2,0-10.9,0c0-7.4,0-14.1,0-21.8c-3.9,0-7.4,0-11,0c0,0,0.1,0.1,0.1,0.1c0-3.9,0-7.7,0-12.2c7.5,0,14.4,0,21.2,0
		c0-3.8,0-6.9,0-10.6c-3.6,0-6.9,0-10.4,0C267.5,125.2,267.5,117.9,267.4,110.7L267.4,110.7z"/>
	<path class="st0" d="M122.4,89c0,3.4,0,6.7,0,10.5c3.7,0,6.9,0,10.5,0c0,3.7,0,7,0,10.7c-7,0-14.3,0-22.2,0c0-3.1,0-6.3,0-10.2
		c-3.9,0-7.2,0-10.8,0c0-22.6,0-44.5,0-67c7.6,0,15.1,0,22.6,0c0,0-0.1-0.1-0.1-0.1c0,7.3,0,14.7,0,22.6c-3.8,0-7.5,0-11.4,0
		c0,11.3,0,22,0,33.6C114.8,89.1,118.6,89.1,122.4,89L122.4,89z"/>
	<path class="st0" d="M144.2,244.3c-10.9,0-21.8,0-33.6,0c0,7.9,0,15.3,0,22.8l0.1-0.1c-3.4,0-6.8,0-10.6,0c0-14.6,0-29,0-43.9
		c3.2,0,6.5,0,10.5,0c0,3.2,0,6.5,0,10.1c7.7,0,14.8,0,22.3,0c0-3.2,0-6.3,0-10.1c-3.1,0-6.4,0-10.1,0c0-4.3,0-7.9,0-12.1
		c11.1,0,22.2,0,33.3,0l-0.1-0.1c0,3.9,0,7.7,0,12.2c-4.2,0-7.8,0-11.9,0C144.1,230.6,144.1,237.5,144.2,244.3L144.2,244.3z"/>
	<path class="st0" d="M166.8,22.1c0,3.4,0,6.7,0,10.7c-3.4,0-6.7,0-10.8,0c0,4,0,7.5,0,11c0,0,0.1-0.1,0.1-0.1c-3.7,0-7.5,0-11.8,0
		c0-3.4,0-6.7,0-10.8c-7.7,0-14.8,0-21.8,0c0,0,0.1,0.1,0.1,0.1c0-3.4,0-6.7,0-10.5c-4.1,0-7.6,0-11.6,0c0-4.1,0-7.7,0-11.8
		c7,0,14.3,0,22.2,0c0,3.4,0,7,0,11.5C144.7,22.2,155.8,22.2,166.8,22.1C166.9,22.2,166.8,22.1,166.8,22.1z"/>
	<path class="st0" d="M156,66.4c14.6,0,29.1,0,44.1,0c0,11,0,21.8,0,33.1c-3.2,0-6.5,0-10.4,0c0-7.1,0-14.4,0-21.9
		c-4.1,0-7.6,0-11.8,0c0,3.6,0,7.3,0,11.2c-3.9,0-7.2,0-11,0c0-3.7,0-7.2,0-11.7c-3.9,0-7.4,0-10.9,0l0.1,0.1
		C156.1,73.6,156.1,70,156,66.4C156.1,66.3,156,66.4,156,66.4z"/>
	<path class="st0" d="M99.7,144.1c3.4,0,6.7,0,10.7,0c0-3.7,0-7,0-10.8c4.4,0,8.3,0,12.2,0l-0.1-0.1c0,3.4,0,6.7,0,10.7
		c3.8,0,7.1,0,10.7,0c0,7.8,0,15.1,0,22.6c-7.5,0-14.8,0-22.5,0c0-3.4,0-6.5,0-10.3c-3.7,0-7,0-10.9,0
		C99.8,151.8,99.8,147.9,99.7,144.1C99.8,144,99.7,144.1,99.7,144.1z"/>
	<path class="st0" d="M110.5,267.1c7.4,0,14.7,0,22.5,0c0,7.5,0,14.7,0,22.3c-10.9,0-21.8,0-33,0c0-3.7,0-7.4,0-11.5
		c3.3,0,6.5,0,10.6,0C110.6,274,110.6,270.5,110.5,267.1C110.6,267,110.5,267.1,110.5,267.1z"/>
	<path class="st0" d="M166.9,144.1c0-3.4,0-6.7,0-10.7c-3.8,0-7.1,0-10.7,0c0-3.9,0-7.2,0-10.7c14.7,0,29.1,0,44.1,0
		c0,3.6,0,7.1,0,10.6l0.1-0.1c-7.4,0-14.9,0-22.9,0c0,4.1,0,7.4,0,10.8C173.6,144,170.2,144,166.9,144.1L166.9,144.1z"/>
	<path class="st0" d="M21.8,155.9c0,14.5,0,29,0,44c-3.8,0-7.5,0-11.6,0c0-14.4,0-28.8,0-43.9C14.1,156,18,156,21.8,155.9
		C21.9,156,21.8,155.9,21.8,155.9z"/>
	<path class="st0" d="M156.1,55.7c0-4,0-8,0-12c0,0-0.1,0.1-0.1,0.1c14.6,0,29.2,0,44.1,0c0,3.9,0,7.5,0,11.8
		C185.4,55.6,170.7,55.6,156.1,55.7L156.1,55.7z"/>
	<path class="st0" d="M177.7,166.7c-11.1,0-22.1,0-33.4,0c0-3.6,0-6.8,0-10.5c3.6,0,7.2,0,11.5,0c0-4.2,0-7.9,0-12
		c4.1,0,7.6,0,11.1,0c0,0-0.1-0.1-0.1-0.1c0,3.8,0,7.7,0,12.1c4.2,0,7.4,0,10.8,0C177.6,160,177.6,163.4,177.7,166.7L177.7,166.7z"
		/>
	<path class="st0" d="M256.6,211c11,0,21.9,0,33.3,0c0,3.9,0,7.5,0,11.8c-11.1,0-22.2,0-33.3,0l0.1,0.1
		C256.7,218.9,256.7,214.9,256.6,211L256.6,211z"/>
	<path class="st0" d="M77.1,133.3c0-3.4,0-6.8,0-10.5c7.5,0,14.7,0,22.6,0c0,7.1,0,14.2,0,21.3c0,0,0.1-0.1,0.1-0.1
		c-3.6,0-7.3,0-10.9,0l0.1,0.1c0-3.5,0-7,0-10.9C84.4,133.2,80.7,133.2,77.1,133.3L77.1,133.3z"/>
	<path class="st0" d="M177.5,100.1c0,3.4,0,6.6,0,10.2c-10.9,0-21.8,0-33.1,0c0-3.2,0-6.5,0-10.2C155.2,100.1,166,100.1,177.5,100.1
		z"/>
	<path class="st0" d="M21.9,122.4c-3.8,0-7.5,0-11.7,0c0-7.4,0-14.7,0-22.3c3.6,0,7.3,0,11.6,0C21.8,107.6,21.8,115.1,21.9,122.4
		C21.8,122.5,21.9,122.4,21.9,122.4z"/>
	<path class="st0" d="M156,55.6c0,3.6,0,7.3,0,10.9c0,0,0.1-0.1,0.1-0.1c-7.4,0-14.7,0-22.5,0c0-3.5,0-6.8,0-10.7
		C141.1,55.7,148.6,55.7,156,55.6C156.1,55.7,156,55.6,156,55.6z"/>
	<path class="st0" d="M122.5,133.3c0-3.4,0-6.8,0-10.5c7.1,0,14,0,21.3,0c0,3.3,0,6.6,0,10.4C136.7,133.2,129.5,133.2,122.5,133.3
		C122.4,133.2,122.5,133.3,122.5,133.3z"/>
	<path class="st0" d="M156,77.1c0,3.7,0,7.5,0,11.6c-3.8,0-7.5,0-11.6,0c0-3.6,0-7.3,0-11.5C148.3,77.2,152.2,77.2,156,77.1
		C156.1,77.2,156,77.1,156,77.1z"/>
	<path class="st0" d="M88.9,144c0,3.7,0,7.5,0,11.6c-3.9,0-7.5,0-11.8,0c0-3.9,0-7.7,0-11.6l-0.1,0.1C81,144.1,85,144.1,88.9,144
		L88.9,144z"/>
	<path class="st0" d="M177.7,22.1c-3.6,0-7.3,0-10.9,0c0,0,0.1,0.1,0.1,0.1c0-3.7,0-7.5,0-11.6c3.5,0,6.8,0,10.7,0
		C177.6,14.5,177.6,18.3,177.7,22.1L177.7,22.1z"/>
	<path class="st0" d="M177.6,22.2c3.8,0,7.5,0,11.7,0c0,3.5,0,6.8,0,10.5c-3.6,0-7.3,0-11.6,0C177.7,29.2,177.7,25.6,177.6,22.2
		C177.7,22.1,177.6,22.2,177.6,22.2z"/>
	<path class="st0" d="M122.5,89.1c0-3.7,0-7.5,0-11.6c3.5,0,6.8,0,10.5,0c0,3.6,0,7.3,0,11.5C129.5,89,125.9,89,122.5,89.1
		C122.4,89,122.5,89.1,122.5,89.1z"/>
	<path class="st0" d="M189.6,177.4c-3.8,0-7.7,0-11.9,0c0-3.9,0-7.3,0-10.8c0,0-0.1,0.1-0.1,0.1c4,0,8-0.1,12-0.1
		C189.6,170.3,189.6,173.9,189.6,177.4L189.6,177.4z"/>
	<path class="st0" d="M21.9,144c-3.8,0-7.5,0-11.7,0c0-3.5,0-6.8,0-10.7c3.9,0,7.8,0,11.7,0l-0.1-0.1
		C21.8,136.8,21.8,140.5,21.9,144C21.8,144.1,21.9,144,21.9,144z"/>
	<path class="st0" d="M177.6,277.8c0,3.7,0,7.5,0,11.6c-3.5,0-6.8,0-10.7,0c0-3.9,0-7.7,0-11.6l-0.1,0.1
		C170.4,277.9,174.1,277.9,177.6,277.8L177.6,277.8z"/>
	<path class="st0" d="M256.7,200.2c0-3.4,0-6.8,0-10.5c3.5,0,6.8,0,10.5,0c0,3.3,0,6.6,0,10.4C263.7,200.1,260.2,200.1,256.7,200.2
		C256.6,200.1,256.7,200.2,256.7,200.2z"/>
	<path class="st0" d="M21.9,133.3c0-3.6,0-7.3,0-10.9c0,0-0.1,0.1-0.1,0.1c3.4,0,6.8,0,10.6,0c0,3.5,0,6.8,0,10.7
		C28.8,133.2,25.3,133.2,21.9,133.3C21.8,133.2,21.9,133.3,21.9,133.3z"/>
	<path class="st0" d="M200.3,177.6c0-3.6,0-7.3,0-10.9c3.4,0,6.7,0,10.5,0c0,3.6,0,7,0,10.9C207.3,177.6,203.8,177.6,200.3,177.6z"
		/>
	<path class="st0" d="M200.5,166.8c-3.7,0-7.3,0-11,0c0-3.4,0-6.7,0-10.5c3.6,0,7,0,11,0C200.5,159.8,200.5,163.3,200.5,166.8z"/>
	<path class="st0" d="M177.7,233.5c-3.4,0-6.8,0-10.6,0c0-3.5,0-6.8,0-10.5c3.3,0,6.6,0,10.5,0C177.6,226.6,177.6,230.1,177.7,233.5
		C177.6,233.6,177.7,233.5,177.7,233.5z"/>
	<path class="st0" d="M222.9,222.6c-4,0-7.6,0-11.5,0c0-3.9,0-7.6,0-11.5c3.9,0,7.6,0,11.5,0C222.9,214.9,222.9,218.4,222.9,222.6z"
		/>
	<path class="st0" d="M66,33.1c0,11.1,0,21.9,0,33c-11.2,0-22,0-33.2,0c0-11.1,0-21.9,0-33C44,33.1,54.9,33.1,66,33.1z"/>
	<path class="st0" d="M267.4,33.2c0,11.2,0,21.9,0,32.9c-11.1,0-22,0-33.2,0c0-10.9,0-21.8,0-32.9C245.2,33.2,256,33.2,267.4,33.2z"
		/>
	<path class="st0" d="M66,233.8c0,11.2,0,21.9,0,32.9c-11.1,0-22,0-33.2,0c0-10.9,0-21.8,0-32.9C43.9,233.8,54.7,233.8,66,233.8z"/>
</g>
</svg>
